<?xml version="1.0" standalone="no"?>
<!DOCTYPE svg PUBLIC "-//W3C//DTD SVG 20010904//EN"
 "http://www.w3.org/TR/2001/REC-SVG-20010904/DTD/svg10.dtd">
<svg version="1.0" xmlns="http://www.w3.org/2000/svg"
 width="900.000000pt" height="900.000000pt" viewBox="0 0 900.000000 900.000000"
 preserveAspectRatio="xMidYMid meet">
<metadata>
Created by potrace 1.10, written by Peter Selinger 2001-2011
</metadata>
<g transform="translate(0.000000,900.000000) scale(0.100000,-0.100000)"
fill="#16252c" stroke="none">
<path d="M2550 8985 c0 -9 -12 -20 -27 -26 -16 -5 -368 -350 -785 -766 -590
-590 -762 -767 -782 -807 l-26 -51 0 -3465 c1 -3771 -3 -3514 57 -3632 28 -54
103 -140 143 -162 41 -24 107 -54 141 -65 50 -16 6387 -16 6438 0 167 52 287
176 327 339 11 46 13 732 14 4137 0 2965 -3 4096 -11 4130 -25 109 -115 245
-189 288 -49 28 -108 54 -132 60 -16 3 -28 12 -28 20 0 13 -307 15 -2570 15
-2296 0 -2570 -2 -2570 -15z m5070 -381 c28 -11 42 -24 48 -43 9 -34 9 -8108
0 -8142 -6 -19 -20 -32 -48 -43 -37 -15 -311 -16 -3131 -16 -3286 0 -3130 -2
-3169 45 -13 16 -15 411 -15 3422 l0 3403 553 552 c443 443 554 550 562 538 7
-9 9 -156 8 -397 l-3 -381 -24 -26 -24 -26 -251 -2 -251 -3 -3 -177 -2 -178
24 -6 c13 -3 152 -4 307 -2 l284 4 60 32 c87 47 205 163 205 204 0 7 6 22 14
33 29 43 36 174 36 688 0 386 3 516 12 525 9 9 554 12 2390 12 2164 0 2381 -1
2418 -16z"/>
<path d="M4574 8221 c-106 -34 -201 -120 -244 -221 -23 -53 -23 -2467 0 -2520
26 -62 89 -137 143 -172 111 -72 33 -68 1329 -68 1122 0 1168 1 1226 19 33 11
70 25 83 33 36 20 139 121 139 136 0 7 6 23 14 35 33 50 36 148 36 1277 0
1129 -3 1227 -36 1277 -8 12 -14 28 -14 36 0 25 -114 129 -165 150 -87 37 -75
37 -1289 36 -1063 -1 -1176 -3 -1222 -18z m2336 -351 c13 -8 15 -144 15 -1122
0 -1052 -1 -1113 -17 -1116 -12 -2 -18 3 -18 15 0 72 -106 296 -199 418 -81
107 -214 226 -309 275 -67 35 -70 45 -31 88 19 20 38 38 42 40 5 2 13 14 18
26 5 11 18 35 28 51 85 132 127 336 102 488 -31 186 -112 337 -244 457 -64 57
-225 150 -262 150 -7 0 -29 7 -48 15 -50 21 -321 21 -357 0 -14 -8 -36 -14
-50 -15 -37 0 -173 -71 -240 -125 -48 -39 -160 -158 -160 -171 0 -4 -13 -29
-30 -56 -16 -26 -30 -56 -30 -66 0 -10 -4 -22 -10 -28 -43 -43 -68 -342 -35
-421 8 -19 15 -46 15 -58 0 -35 75 -176 135 -254 56 -73 61 -95 22 -107 -45
-14 -218 -157 -285 -234 -65 -75 -172 -235 -172 -258 0 -6 -6 -23 -14 -39 -26
-53 -46 -104 -46 -119 0 -24 -40 -95 -50 -89 -12 7 -14 2224 -2 2241 4 6 14
14 22 17 27 10 2194 7 2210 -3z m-1015 -582 c95 -26 150 -64 210 -142 46 -60
58 -103 62 -211 4 -108 -1 -129 -61 -225 -28 -45 -122 -119 -179 -140 -16 -5
-72 -10 -126 -10 -89 0 -103 3 -158 30 -63 32 -142 105 -169 156 -25 46 -54
144 -54 179 0 37 24 122 49 174 19 41 125 151 145 151 7 0 19 6 25 14 6 8 26
17 44 20 18 4 50 10 72 15 44 8 79 6 140 -11z m94 -1194 c25 -8 50 -14 57 -14
37 0 165 -76 253 -149 46 -39 141 -150 141 -165 0 -3 14 -28 30 -56 36 -62 39
-95 8 -104 -13 -3 -318 -6 -678 -6 -360 0 -665 3 -677 6 -13 4 -23 11 -23 17
0 5 19 48 42 96 34 72 57 101 134 177 50 50 111 101 135 113 24 12 51 26 59
30 60 32 80 41 97 41 10 0 24 5 31 12 27 27 310 28 391 2z"/>
<path d="M3380 4480 c-1 -5 -1 -82 -1 -170 0 -88 0 -167 1 -175 0 -13 172 -15
1485 -15 l1485 0 5 23 c3 12 4 94 3 182 l-3 160 -1487 3 c-990 1 -1488 -1
-1488 -8z"/>
<path d="M2633 3542 c-10 -10 -13 -54 -13 -175 0 -89 4 -168 8 -175 12 -18
3712 -18 3724 0 10 17 10 329 0 346 -12 19 -3700 23 -3719 4z"/>
<path d="M2625 2588 c-3 -13 -4 -95 -3 -183 l3 -160 1865 0 1865 0 3 160 c1
88 0 170 -3 183 l-5 22 -1860 0 -1860 0 -5 -22z"/>
<path d="M2624 1657 c-2 -7 -3 -87 -2 -177 l3 -165 1488 -3 c989 -1 1487 1
1487 8 1 5 1 82 1 170 0 88 0 165 -1 170 0 7 -502 10 -1485 10 -1203 0 -1487
-2 -1491 -13z"/>
<path d="M5995 1657 c-3 -7 -4 -87 -3 -177 l3 -165 180 0 180 0 0 175 0 175
-178 3 c-139 2 -179 0 -182 -11z"/>
</g>
</svg>
